<svg width="13" height="13" viewBox="0 0 13 13" fill="none" xmlns="http://www.w3.org/2000/svg">
<path d="M2.26091 8.28756L4.71466 10.7413C5.72216 11.7488 7.35799 11.7488 8.37091 10.7413L10.7488 8.36339C11.7563 7.35589 11.7563 5.72006 10.7488 4.70714L8.28966 2.25881C7.77508 1.74422 7.06549 1.46797 6.33966 1.50589L3.63133 1.63589C2.54799 1.68464 1.68674 2.54589 1.63258 3.62381L1.50258 6.33214C1.47008 7.06339 1.74633 7.77297 2.26091 8.28756Z" stroke="black" stroke-linecap="round" stroke-linejoin="round"/>
<path d="M5.14323 6.50002C5.89111 6.50002 6.4974 5.89374 6.4974 5.14585C6.4974 4.39797 5.89111 3.79169 5.14323 3.79169C4.39534 3.79169 3.78906 4.39797 3.78906 5.14585C3.78906 5.89374 4.39534 6.50002 5.14323 6.50002Z" stroke="black" stroke-linecap="round"/>
</svg>
